<svg width="276" height="115" viewBox="0 0 276 115" fill="none" xmlns="http://www.w3.org/2000/svg">
<g clip-path="url(#clip0_403_755)">
<path d="M2.87082 94.0294V93.452H3.02085C3.51959 93.452 3.91696 93.2824 4.20486 92.9473C4.49275 92.6122 4.76037 91.95 5.01177 90.9689L11.5603 67.8987H13.2877L19.5159 93.456H21.2027V94.0334H12.6267V93.456H14.127L12.5132 86.6932H6.86483L5.70109 90.7832C5.64027 91.0457 5.59161 91.2879 5.55917 91.51C5.52673 91.732 5.51051 91.9379 5.51051 92.1277C5.51051 92.6122 5.66865 92.9554 5.98087 93.1532C6.29309 93.3511 6.86888 93.452 7.70823 93.452V94.0294H2.87082ZM7.01485 86.0311H12.3632L9.84918 75.9979L7.01485 86.0311Z" fill="#94463C"/>
<path d="M36.9881 93.4479H38.975V94.0253H29.6895V93.4479H31.6398V69.0857H29.6895V68.5083H39.6724C42.1499 68.5083 44.0679 69.0453 45.4344 70.1233C46.7968 71.2013 47.478 72.7033 47.478 74.6332C47.478 76.4379 46.817 77.8793 45.4992 78.9573C44.1814 80.0354 42.3 80.6531 39.863 80.8146C42.2878 81.2022 43.9989 81.8966 44.9843 82.8979C45.9736 83.8992 46.5859 85.5586 46.8211 87.8762C46.8819 88.5222 46.9387 89.3822 46.9914 90.4521C47.0806 92.4224 47.4172 93.4035 48.0051 93.4035C48.1308 93.4035 48.2727 93.3712 48.4349 93.3026C48.5971 93.2339 48.7917 93.133 49.0148 92.9957L49.3148 93.6498C48.7877 93.9486 48.3052 94.1706 47.8591 94.3119C47.4131 94.4533 46.9914 94.5259 46.594 94.5259C45.9047 94.5259 45.2559 94.3967 44.6437 94.1424C44.0314 93.888 43.5002 93.5287 43.0501 93.0684C42.0729 92.0832 41.5133 89.9797 41.3592 86.7537C41.3471 86.4792 41.3349 86.2733 41.3228 86.136C41.2092 83.8306 40.9335 82.4013 40.4875 81.8482C40.0414 81.2951 39.2224 81.0165 38.0221 81.0165C37.7586 81.0165 37.5518 81.0205 37.4017 81.0245C37.2517 81.0326 37.1138 81.0407 36.9881 81.0528V93.4479ZM36.9881 80.4108C37.1382 80.423 37.2963 80.431 37.4666 80.4391C37.6369 80.4472 37.8721 80.4472 38.1722 80.4472C39.5995 80.4472 40.5442 80.1323 41.0146 79.5024C41.4849 78.8726 41.7201 77.2899 41.7201 74.7462C41.7201 72.2672 41.4647 70.7007 40.9497 70.0385C40.4347 69.3804 39.4373 69.0493 37.9491 69.0493C37.6977 69.0493 37.5031 69.0534 37.3693 69.0574C37.2314 69.0655 37.1057 69.0736 36.9922 69.0857V80.4108H36.9881Z" fill="#94463C"/>
<path d="M58.276 94.0293V93.4116H58.7058C59.4195 93.4116 59.902 93.2137 60.1615 92.814C60.4169 92.4143 60.5467 91.5059 60.5467 90.0887V69.1624H58.8599V68.5083H66.2316L70.4162 85.0055L74.767 68.5083H82.1022V69.0857H80.4884V93.4479H82.1022V94.0253H73.1897V93.4479H75.0265V70.0022L68.9118 94.0253H67.298L61.236 70.0022V90.553C61.236 91.6876 61.3779 92.4507 61.6577 92.8504C61.9375 93.2501 62.4484 93.4479 63.1864 93.4479C63.3851 93.4479 63.5432 93.4439 63.6568 93.4398C63.7703 93.4358 63.8676 93.4318 63.9568 93.4318V94.0293H58.276Z" fill="#94463C"/>
<path d="M92.7137 94.0294V93.4521H94.3275V69.0898H92.7137V68.5125H107.854V75.0895H107.348C107.06 73.0466 106.362 71.5446 105.255 70.5796C104.148 69.6147 102.571 69.1302 100.519 69.1302C100.43 69.1302 100.292 69.1383 100.106 69.1504C99.9191 69.1625 99.7731 69.1706 99.6758 69.1706V80.5684C99.7366 80.5805 99.8177 80.5886 99.9191 80.5967C100.02 80.6047 100.15 80.6048 100.312 80.6048C101.549 80.6048 102.49 80.2373 103.126 79.5025C103.763 78.7677 104.132 77.6291 104.233 76.0828H104.704V85.9665H104.233C104.144 84.3475 103.759 83.1524 103.078 82.3812C102.397 81.6101 101.387 81.2225 100.049 81.2225H99.6717V93.4198C99.7609 93.4319 99.8623 93.44 99.9799 93.448C100.098 93.4561 100.276 93.4561 100.515 93.4561C102.543 93.4561 104.164 92.8666 105.385 91.6796C106.605 90.4926 107.4 88.7403 107.777 86.4107H108.227V94.0335H92.7137V94.0294Z" fill="#94463C"/>
<path d="M133.436 94.4573L121.523 70.3373V90.549C121.523 91.7441 121.681 92.5193 122.002 92.8746C122.322 93.2299 122.942 93.4075 123.867 93.4075H124.053V94.0253H118.292V93.4277C118.369 93.4277 118.45 93.4318 118.535 93.4358C118.624 93.4439 118.746 93.4439 118.912 93.4439C119.65 93.4439 120.153 93.246 120.42 92.8463C120.688 92.4466 120.826 91.5261 120.826 90.0806V69.1624H119.139V68.5083H126.361L134.503 84.7996V71.9846C134.503 70.7895 134.349 70.0183 134.045 69.6792C133.736 69.336 133.136 69.1664 132.236 69.1664H132.05V68.5123H137.698V69.1664C137.625 69.1543 137.544 69.1462 137.455 69.1382C137.365 69.1341 137.244 69.1301 137.078 69.1301C136.376 69.1301 135.894 69.332 135.634 69.7357C135.37 70.1395 135.241 71.06 135.241 72.4933V94.4613H133.436V94.4573Z" fill="#94463C"/>
<path d="M151.286 94.0294V93.4521H153.256V69.1625C151.793 69.6874 150.6 70.5756 149.684 71.8353C148.764 73.095 148.176 74.6494 147.912 76.5067L147.182 76.4704L147.576 68.5125H164.294L164.671 76.4704L163.941 76.5067C163.677 74.6777 163.085 73.1233 162.169 71.8555C161.248 70.5837 160.056 69.6874 158.597 69.1665V93.4521H160.567V94.0294H151.286Z" fill="#94463C"/>
<path d="M174.767 94.0294V93.4521H176.381V69.0898H174.767V68.5125H189.908V75.0895H189.401C189.113 73.0466 188.416 71.5446 187.309 70.5796C186.202 69.6147 184.624 69.1302 182.573 69.1302C182.483 69.1302 182.35 69.1383 182.159 69.1504C181.973 69.1625 181.827 69.1706 181.729 69.1706V80.5684C181.79 80.5805 181.871 80.5886 181.973 80.5967C182.074 80.6047 182.204 80.6048 182.366 80.6048C183.603 80.6048 184.543 80.2373 185.18 79.5025C185.817 78.7677 186.186 77.6291 186.287 76.0828H186.757V85.9665H186.287C186.198 84.3475 185.813 83.1524 185.131 82.3812C184.45 81.6101 183.44 81.2225 182.102 81.2225H181.725V93.4198C181.814 93.4319 181.916 93.44 182.033 93.448C182.151 93.4561 182.329 93.4561 182.569 93.4561C184.596 93.4561 186.218 92.8666 187.438 91.6796C188.659 90.4926 189.454 88.7403 189.831 86.4107H190.281V94.0335H174.767V94.0294Z" fill="#94463C"/>
<path d="M208.082 93.4479H210.069V94.0253H200.783V93.4479H202.733V69.0857H200.783V68.5083H210.766C213.243 68.5083 215.161 69.0453 216.528 70.1233C217.89 71.2013 218.571 72.7033 218.571 74.6332C218.571 76.4379 217.911 77.8793 216.593 78.9573C215.275 80.0354 213.393 80.6531 210.957 80.8146C213.381 81.2022 215.088 81.8966 216.078 82.8979C217.067 83.8992 217.679 85.5586 217.915 87.8762C217.975 88.5222 218.032 89.3822 218.085 90.4521C218.17 92.4224 218.511 93.4035 219.099 93.4035C219.224 93.4035 219.366 93.3712 219.528 93.3026C219.691 93.2339 219.885 93.133 220.108 92.9957L220.408 93.6498C219.881 93.9486 219.399 94.1706 218.953 94.3119C218.507 94.4533 218.085 94.5259 217.688 94.5259C216.998 94.5259 216.349 94.3967 215.737 94.1424C215.125 93.888 214.594 93.5287 214.144 93.0684C213.166 92.0832 212.607 89.9797 212.457 86.7537C212.445 86.4792 212.432 86.2733 212.42 86.136C212.307 83.8306 212.031 82.4013 211.585 81.8482C211.143 81.2951 210.32 81.0165 209.12 81.0165C208.856 81.0165 208.649 81.0205 208.499 81.0245C208.349 81.0286 208.211 81.0407 208.086 81.0528V93.4479H208.082ZM208.082 80.4108C208.232 80.423 208.39 80.431 208.56 80.4391C208.73 80.4472 208.966 80.4472 209.266 80.4472C210.693 80.4472 211.638 80.1323 212.108 79.5024C212.578 78.8726 212.814 77.2899 212.814 74.7462C212.814 72.2672 212.558 70.7007 212.043 70.0385C211.532 69.3804 210.531 69.0493 209.043 69.0493C208.791 69.0493 208.601 69.0534 208.463 69.0574C208.325 69.0655 208.199 69.0736 208.09 69.0857V80.4108H208.082Z" fill="#94463C"/>
<path d="M230.322 81.1376C230.322 79.3328 230.558 77.6249 231.028 76.018C231.498 74.4111 232.175 72.9657 233.063 71.6858C233.951 70.4019 234.929 69.4571 235.991 68.8474C237.053 68.2378 238.254 67.9309 239.592 67.9309C240.893 67.9309 242.049 68.2176 243.063 68.7909C244.076 69.3642 245.033 70.2807 245.933 71.5364C246.899 72.893 247.608 74.3828 248.07 76.0019C248.533 77.6209 248.764 79.4337 248.764 81.4363C248.764 83.2936 248.553 84.9732 248.135 86.4792C247.718 87.9852 247.069 89.3942 246.193 90.7024C245.281 92.0348 244.275 93.0239 243.18 93.674C242.085 94.32 240.877 94.647 239.551 94.647C236.875 94.647 234.665 93.3914 232.93 90.8841C231.194 88.3728 230.322 85.1226 230.322 81.1376ZM236.084 84.7632C236.084 88.5989 236.332 91.1102 236.826 92.2932C237.321 93.4761 238.217 94.0697 239.519 94.0697C240.857 94.0697 241.773 93.5448 242.268 92.4991C242.763 91.4534 243.01 88.9299 243.01 84.9328V77.6088C243.01 73.7126 242.771 71.2134 242.288 70.1192C241.806 69.0251 240.922 68.476 239.632 68.476C238.27 68.476 237.337 69.0251 236.838 70.1192C236.34 71.2134 236.088 73.7812 236.088 77.8147V84.7632H236.084Z" fill="#94463C"/>
<path d="M261.176 94.1788H260.612V85.4175H261.269C261.508 88.0943 262.173 90.1696 263.268 91.6392C264.363 93.1089 265.786 93.8437 267.538 93.8437C268.786 93.8437 269.792 93.4561 270.55 92.6849C271.309 91.9138 271.686 90.8802 271.686 89.5842C271.686 88.4617 271.422 87.4968 270.899 86.6893C270.376 85.8818 269.61 85.2519 268.612 84.8038C268.199 84.6301 267.611 84.3798 266.848 84.0568C264.711 83.1726 263.341 82.458 262.741 81.9089C261.901 81.1619 261.289 80.2898 260.9 79.2926C260.511 78.2953 260.32 77.1244 260.32 75.78C260.32 73.527 260.94 71.6617 262.185 70.184C263.43 68.7063 264.983 67.9714 266.848 67.9714C267.785 67.9714 268.782 68.2218 269.833 68.7184C270.883 69.215 271.479 69.4653 271.617 69.4653C271.868 69.4653 272.083 69.3644 272.266 69.1665C272.448 68.9687 272.574 68.6861 272.651 68.3267H273.271V75.6306H272.728C272.505 73.5028 271.892 71.8071 270.899 70.5474C269.906 69.2877 268.681 68.6618 267.229 68.6618C266.167 68.6618 265.251 69.0494 264.488 69.8206C263.726 70.5918 263.345 71.5204 263.345 72.6024C263.345 73.6239 263.665 74.4758 264.302 75.1622C264.938 75.8486 266.455 76.7086 268.843 77.7422C271.146 78.7152 272.732 79.8053 273.608 81.0206C274.484 82.2359 274.921 83.859 274.921 85.8858C274.921 88.4133 274.236 90.5007 272.866 92.1439C271.495 93.7872 269.784 94.6108 267.732 94.6108C266.719 94.6108 265.62 94.3444 264.432 93.8074C263.244 93.2704 262.562 93.0039 262.388 93.0039C262.124 93.0039 261.889 93.1048 261.682 93.3108C261.476 93.5167 261.301 93.8033 261.176 94.1788Z" fill="#94463C"/>
<path d="M82.7712 103.126C83.5984 102.984 84.7662 102.879 86.4043 102.879C88.0628 102.879 89.2427 103.194 90.0375 103.828C90.7957 104.426 91.3066 105.411 91.3066 106.57C91.3066 107.728 90.9174 108.714 90.2118 109.38C89.2954 110.24 87.9371 110.627 86.3476 110.627C85.9948 110.627 85.6785 110.611 85.4312 110.575V114.806H82.7672V103.126H82.7712ZM85.4352 108.5C85.6664 108.552 85.9461 108.568 86.3354 108.568C87.7627 108.568 88.6467 107.85 88.6467 106.634C88.6467 105.544 87.8884 104.894 86.5463 104.894C85.9989 104.894 85.6299 104.947 85.4352 104.999V108.5Z" fill="#94463C"/>
<path d="M93.0218 103.126C93.8855 102.984 95.1749 102.879 96.6022 102.879C98.3661 102.879 99.6028 103.142 100.446 103.812C101.152 104.373 101.541 105.201 101.541 106.287C101.541 107.797 100.466 108.835 99.4406 109.202V109.255C100.268 109.59 100.73 110.377 101.03 111.467C101.399 112.804 101.772 114.346 101.999 114.806H99.246C99.0513 114.471 98.7716 113.506 98.4188 112.049C98.1025 110.575 97.5916 110.171 96.4968 110.151H95.6858V114.806H93.0218V103.126ZM95.6858 108.221H96.7441C98.0863 108.221 98.877 107.555 98.877 106.517C98.877 105.427 98.135 104.882 96.9023 104.866C96.2495 104.866 95.8805 104.918 95.6858 104.955V108.221Z" fill="#94463C"/>
<path d="M114.293 108.766C114.293 112.646 111.929 115 108.454 115C104.927 115 102.863 112.347 102.863 108.976C102.863 105.427 105.138 102.774 108.649 102.774C112.298 102.774 114.293 105.5 114.293 108.766ZM105.701 108.924C105.701 111.241 106.796 112.876 108.592 112.876C110.409 112.876 111.451 111.156 111.451 108.855C111.451 106.731 110.429 104.902 108.576 104.902C106.76 104.902 105.701 106.622 105.701 108.924Z" fill="#94463C"/>
<path d="M116.057 103.126C116.884 102.984 118.052 102.879 119.69 102.879C121.349 102.879 122.529 103.194 123.324 103.828C124.082 104.426 124.593 105.411 124.593 106.57C124.593 107.728 124.203 108.714 123.498 109.38C122.582 110.24 121.223 110.627 119.634 110.627C119.281 110.627 118.965 110.611 118.717 110.575V114.806H116.053V103.126H116.057ZM118.721 108.5C118.952 108.552 119.232 108.568 119.621 108.568C121.049 108.568 121.933 107.85 121.933 106.634C121.933 105.544 121.174 104.894 119.832 104.894C119.285 104.894 118.916 104.947 118.721 104.999V108.5Z" fill="#94463C"/>
<path d="M129.004 102.968V114.806H126.304V102.968H129.004Z" fill="#94463C"/>
<path d="M138.403 109.8H134.028V112.61H138.914V114.806H131.328V102.968H138.667V105.165H134.028V107.623H138.403V109.8Z" fill="#94463C"/>
<path d="M140.751 103.126C141.741 102.968 143.026 102.879 144.384 102.879C146.643 102.879 148.107 103.283 149.254 104.143C150.487 105.056 151.265 106.513 151.265 108.605C151.265 110.87 150.438 112.432 149.291 113.401C148.038 114.439 146.132 114.931 143.804 114.931C142.41 114.931 141.424 114.842 140.751 114.754V103.126ZM143.452 112.787C143.683 112.84 144.052 112.84 144.388 112.84C146.821 112.856 148.411 111.524 148.411 108.693C148.427 106.235 146.983 104.934 144.672 104.934C144.072 104.934 143.683 104.987 143.456 105.039V112.787H143.452Z" fill="#94463C"/>
<path d="M155.515 111.77L154.667 114.81H151.882L155.515 102.972H159.043L162.728 114.81H159.837L158.921 111.77H155.515ZM158.532 109.767L157.79 107.256C157.579 106.553 157.368 105.673 157.189 104.971H157.153C156.975 105.673 156.8 106.57 156.606 107.256L155.9 109.767H158.532Z" fill="#94463C"/>
<path d="M164.318 103.126C165.307 102.968 166.593 102.879 167.951 102.879C170.21 102.879 171.673 103.283 172.821 104.143C174.054 105.056 174.832 106.513 174.832 108.605C174.832 110.87 174.005 112.432 172.857 113.401C171.604 114.439 169.699 114.931 167.371 114.931C165.976 114.931 164.991 114.842 164.318 114.754V103.126ZM167.014 112.787C167.245 112.84 167.614 112.84 167.951 112.84C170.384 112.856 171.973 111.524 171.973 108.693C171.99 106.235 170.546 104.934 168.235 104.934C167.635 104.934 167.245 104.987 167.018 105.039V112.787H167.014Z" fill="#94463C"/>
<path d="M183.667 109.8H179.292V112.61H184.178V114.806H176.592V102.968H183.931V105.165H179.292V107.623H183.667V109.8Z" fill="#94463C"/>
<path d="M186.1 112.049C186.822 112.416 187.933 112.787 189.081 112.787C190.317 112.787 190.97 112.279 190.97 111.503C190.97 110.765 190.407 110.345 188.975 109.836C187.001 109.15 185.711 108.064 185.711 106.34C185.711 104.321 187.406 102.774 190.208 102.774C191.55 102.774 192.535 103.057 193.241 103.372L192.641 105.532C192.166 105.302 191.319 104.971 190.155 104.971C188.991 104.971 188.428 105.496 188.428 106.113C188.428 106.868 189.097 107.204 190.634 107.781C192.734 108.552 193.719 109.642 193.719 111.31C193.719 113.296 192.187 114.98 188.923 114.98C187.564 114.98 186.222 114.629 185.553 114.261L186.1 112.049Z" fill="#94463C"/>
<path d="M53.2723 103.263H0V104.7H53.2723V103.263Z" fill="#39AA18"/>
<path d="M276 103.263H222.728V104.7H276V103.263Z" fill="#39AA18"/>
<path d="M275.29 58.1724H201.245L150.75 1.13062L147.292 5.39017L194.433 59.6097H275.29V58.1724Z" fill="#39AA18"/>
<path d="M116.661 11.5351V1.38486L105.782 4.87326V15.6251L97.7538 18.6452L44.4328 7.92157L68.8226 40.6818H81.8873L68.5793 58.1722H0V59.6096H96.2049L147.344 0L116.661 11.5351Z" fill="#39AA18"/>
<path d="M44.1125 13.013L41.266 9.61743L14.2284 43.8917H19.6497L44.1125 13.013Z" fill="#39AA18"/>
<path d="M257.096 43.5363L230.724 9.94434L228.473 13.8203L251.837 43.5363H257.096Z" fill="#39AA18"/>
<path d="M205.868 41.6427L228.368 7.17456L172.642 18.4634L192.977 41.6427H205.868Z" fill="#39AA18"/>
<path d="M228.044 34.2622H222.351V39.9309H228.044V34.2622Z" fill="#39AA18"/>
<path d="M234.365 34.2622H228.672V39.9309H234.365V34.2622Z" fill="#39AA18"/>
<path d="M228.044 40.7019H222.351V46.3705H228.044V40.7019Z" fill="#39AA18"/>
<path d="M234.365 40.7019H228.672V46.3705H234.365V40.7019Z" fill="#39AA18"/>
<path d="M44.7248 36.6968H37.6734V43.718H44.7248V36.6968Z" fill="#39AA18"/>
<path d="M52.5506 36.6968H45.4992V43.718H52.5506V36.6968Z" fill="#39AA18"/>
<path d="M44.7248 44.6709H37.6734V51.6921H44.7248V44.6709Z" fill="#39AA18"/>
<path d="M52.5506 44.6709H45.4992V51.6921H52.5506V44.6709Z" fill="#39AA18"/>
<path d="M144.092 40.3628H134.681V53.3151H144.092V40.3628Z" fill="#39AA18"/>
<path d="M154.87 40.3628H145.459V53.3151H154.87V40.3628Z" fill="#39AA18"/>
<path d="M134.681 35.1425V39.0669H144.092V26.373H143.691C139.008 26.8575 135.273 30.5115 134.681 35.1425Z" fill="#39AA18"/>
<path d="M145.803 26.373H145.463V39.0669H154.874V35.736C154.538 30.8264 150.686 26.8777 145.803 26.373Z" fill="#39AA18"/>
</g>
<defs>
<clipPath id="clip0_403_755">
<rect width="276" height="115" fill="white"/>
</clipPath>
</defs>
</svg>
